<svg width="129" height="32" viewBox="0 0 129 32" fill="none" xmlns="http://www.w3.org/2000/svg">
<path d="M124 0H5C2.23858 0 0 2.23858 0 5V27C0 29.7614 2.23858 32 5 32H124C126.761 32 129 29.7614 129 27V5C129 2.23858 126.761 0 124 0Z" fill="#EF476F"/>
<path d="M31 0H5C2.23858 0 0 2.23858 0 5V27C0 29.7614 2.23858 32 5 32H31V0Z" fill="#073B4C"/>
<path d="M16.0027 9.8454C12.5974 9.8454 9.85075 12.592 9.85075 15.9973C9.85075 19.4025 12.5974 22.1493 16.0027 22.1493C19.4079 22.1493 22.1546 19.4025 22.1546 15.9973C22.1546 12.592 19.4079 9.8454 16.0027 9.8454ZM16.0027 19.9969C13.8021 19.9969 12.0031 18.2032 12.0031 15.9973C12.0031 13.7914 13.7968 11.9977 16.0027 11.9977C18.2086 11.9977 20.0022 13.7914 20.0022 15.9973C20.0022 18.2032 18.2032 19.9969 16.0027 19.9969ZM23.8411 9.59375C23.8411 10.3916 23.1987 11.0286 22.4062 11.0286C21.6085 11.0286 20.9713 10.3862 20.9713 9.59375C20.9713 8.80134 21.6138 8.15884 22.4062 8.15884C23.1987 8.15884 23.8411 8.80134 23.8411 9.59375ZM27.9157 11.05C27.8246 9.12794 27.3856 7.42532 25.9775 6.02253C24.5747 4.61974 22.872 4.1807 20.9499 4.08433C18.9689 3.97189 13.0311 3.97189 11.0501 4.08433C9.13329 4.17535 7.43067 4.61439 6.02253 6.01718C4.61439 7.41997 4.1807 9.12259 4.08433 11.0448C3.97189 13.0258 3.97189 18.9636 4.08433 20.9446C4.17535 22.8668 4.61439 24.5694 6.02253 25.9722C7.43067 27.375 9.12794 27.814 11.0501 27.9104C13.0311 28.0228 18.9689 28.0228 20.9499 27.9104C22.872 27.8193 24.5747 27.3803 25.9775 25.9722C27.3802 24.5694 27.8193 22.8668 27.9157 20.9446C28.0281 18.9636 28.0281 13.0311 27.9157 11.05ZM25.3564 23.0702C24.9388 24.1196 24.1303 24.9281 23.0755 25.3511C21.496 25.9775 17.7481 25.833 16.0027 25.833C14.2572 25.833 10.5039 25.9722 8.92984 25.3511C7.88042 24.9335 7.07194 24.125 6.64897 23.0702C6.02253 21.4907 6.16709 17.7427 6.16709 15.9973C6.16709 14.2518 6.02788 10.4986 6.64897 8.92449C7.06659 7.87507 7.87507 7.06659 8.92984 6.64362C10.5093 6.01718 14.2572 6.16174 16.0027 6.16174C17.7481 6.16174 21.5014 6.02253 23.0755 6.64362C24.1249 7.06124 24.9334 7.86972 25.3564 8.92449C25.9828 10.5039 25.8382 14.2518 25.8382 15.9973C25.8382 17.7427 25.9828 21.4961 25.3564 23.0702Z" fill="#F8F8F8"/>
<path d="M50.5703 11.0469V21H49.251V11.0469H50.5703ZM54.043 15.1826V21H52.7783V13.6035H53.9746L54.043 15.1826ZM53.7422 17.0215L53.2158 17.001C53.2204 16.4951 53.2956 16.028 53.4414 15.5996C53.5872 15.1667 53.7923 14.7907 54.0566 14.4717C54.321 14.1527 54.6354 13.9066 55 13.7334C55.3691 13.5557 55.777 13.4668 56.2236 13.4668C56.5882 13.4668 56.9163 13.5169 57.208 13.6172C57.4997 13.7129 57.748 13.8678 57.9531 14.082C58.1628 14.2962 58.3223 14.5742 58.4316 14.916C58.541 15.2533 58.5957 15.6657 58.5957 16.1533V21H57.3242V16.1396C57.3242 15.7523 57.2673 15.4424 57.1533 15.21C57.0394 14.973 56.873 14.8021 56.6543 14.6973C56.4355 14.5879 56.1667 14.5332 55.8477 14.5332C55.5332 14.5332 55.2461 14.5993 54.9863 14.7314C54.7311 14.8636 54.5101 15.0459 54.3232 15.2783C54.141 15.5107 53.9974 15.7773 53.8926 16.0781C53.7923 16.3743 53.7422 16.6888 53.7422 17.0215ZM64.8232 19.0381C64.8232 18.8558 64.7822 18.6872 64.7002 18.5322C64.6227 18.3727 64.4609 18.2292 64.2148 18.1016C63.9733 17.9694 63.6087 17.8555 63.1211 17.7598C62.7109 17.6732 62.3395 17.5706 62.0068 17.4521C61.6787 17.3337 61.3984 17.1901 61.166 17.0215C60.9382 16.8529 60.7627 16.6546 60.6396 16.4268C60.5166 16.1989 60.4551 15.9323 60.4551 15.627C60.4551 15.3353 60.5189 15.0596 60.6465 14.7998C60.7786 14.54 60.9632 14.3099 61.2002 14.1094C61.4417 13.9089 61.7311 13.7516 62.0684 13.6377C62.4056 13.5238 62.7816 13.4668 63.1963 13.4668C63.7887 13.4668 64.2946 13.5716 64.7139 13.7812C65.1331 13.9909 65.4544 14.2712 65.6777 14.6221C65.901 14.9684 66.0127 15.3535 66.0127 15.7773H64.748C64.748 15.5723 64.6865 15.374 64.5635 15.1826C64.445 14.9867 64.2695 14.8249 64.0371 14.6973C63.8092 14.5697 63.529 14.5059 63.1963 14.5059C62.8454 14.5059 62.5605 14.5605 62.3418 14.6699C62.1276 14.7747 61.9704 14.9092 61.8701 15.0732C61.7744 15.2373 61.7266 15.4105 61.7266 15.5928C61.7266 15.7295 61.7493 15.8525 61.7949 15.9619C61.8451 16.0667 61.9316 16.1647 62.0547 16.2559C62.1777 16.3424 62.3509 16.4245 62.5742 16.502C62.7975 16.5794 63.0824 16.6569 63.4287 16.7344C64.0348 16.8711 64.5339 17.0352 64.9258 17.2266C65.3177 17.418 65.6094 17.6527 65.8008 17.9307C65.9922 18.2087 66.0879 18.5459 66.0879 18.9424C66.0879 19.266 66.0195 19.5622 65.8828 19.8311C65.7507 20.0999 65.557 20.3324 65.3018 20.5283C65.0511 20.7197 64.7503 20.8701 64.3994 20.9795C64.0531 21.0843 63.6634 21.1367 63.2305 21.1367C62.5788 21.1367 62.0273 21.0205 61.5762 20.7881C61.125 20.5557 60.7832 20.2549 60.5508 19.8857C60.3184 19.5166 60.2021 19.127 60.2021 18.7168H61.4736C61.4919 19.0632 61.5921 19.3389 61.7744 19.5439C61.9567 19.7445 62.18 19.888 62.4443 19.9746C62.7087 20.0566 62.9707 20.0977 63.2305 20.0977C63.5768 20.0977 63.8662 20.0521 64.0986 19.9609C64.3356 19.8698 64.5156 19.7445 64.6387 19.585C64.7617 19.4255 64.8232 19.2432 64.8232 19.0381ZM70.8457 13.6035V14.5742H66.8467V13.6035H70.8457ZM68.2002 11.8057H69.4648V19.168C69.4648 19.4186 69.5036 19.6077 69.5811 19.7354C69.6585 19.863 69.7588 19.9473 69.8818 19.9883C70.0049 20.0293 70.137 20.0498 70.2783 20.0498C70.3831 20.0498 70.4925 20.0407 70.6064 20.0225C70.7249 19.9997 70.8138 19.9814 70.873 19.9678L70.8799 21C70.7796 21.0319 70.6475 21.0615 70.4834 21.0889C70.3239 21.1208 70.1302 21.1367 69.9023 21.1367C69.5924 21.1367 69.3076 21.0752 69.0479 20.9521C68.7881 20.8291 68.5807 20.624 68.4258 20.3369C68.2754 20.0452 68.2002 19.6533 68.2002 19.1611V11.8057ZM76.6904 19.7354V15.9277C76.6904 15.6361 76.6312 15.3831 76.5127 15.1689C76.3988 14.9502 76.2256 14.7816 75.9932 14.6631C75.7607 14.5446 75.4736 14.4854 75.1318 14.4854C74.8128 14.4854 74.5326 14.54 74.291 14.6494C74.054 14.7588 73.8672 14.9023 73.7305 15.0801C73.5983 15.2578 73.5322 15.4492 73.5322 15.6543H72.2676C72.2676 15.39 72.3359 15.1279 72.4727 14.8682C72.6094 14.6084 72.8053 14.3737 73.0605 14.1641C73.3203 13.9499 73.6302 13.7812 73.9902 13.6582C74.3548 13.5306 74.7604 13.4668 75.207 13.4668C75.7448 13.4668 76.2188 13.5579 76.6289 13.7402C77.0436 13.9225 77.3672 14.1982 77.5996 14.5674C77.8366 14.932 77.9551 15.39 77.9551 15.9414V19.3867C77.9551 19.6328 77.9756 19.8949 78.0166 20.1729C78.0622 20.4508 78.1283 20.6901 78.2148 20.8906V21H76.8955C76.8317 20.8542 76.7816 20.6605 76.7451 20.4189C76.7087 20.1729 76.6904 19.945 76.6904 19.7354ZM76.9092 16.5156L76.9229 17.4043H75.6445C75.2845 17.4043 74.9632 17.4339 74.6807 17.4932C74.3981 17.5479 74.1611 17.6322 73.9697 17.7461C73.7783 17.86 73.6325 18.0036 73.5322 18.1768C73.432 18.3454 73.3818 18.5436 73.3818 18.7715C73.3818 19.0039 73.4342 19.2158 73.5391 19.4072C73.6439 19.5986 73.8011 19.7513 74.0107 19.8652C74.2249 19.9746 74.487 20.0293 74.7969 20.0293C75.1842 20.0293 75.526 19.9473 75.8223 19.7832C76.1185 19.6191 76.3532 19.4186 76.5264 19.1816C76.7041 18.9447 76.7998 18.7145 76.8135 18.4912L77.3535 19.0996C77.3216 19.291 77.235 19.5029 77.0938 19.7354C76.9525 19.9678 76.7633 20.1911 76.5264 20.4053C76.2939 20.6149 76.016 20.7904 75.6924 20.9316C75.3734 21.0684 75.0133 21.1367 74.6123 21.1367C74.111 21.1367 73.6712 21.0387 73.293 20.8428C72.9193 20.6468 72.6276 20.3848 72.418 20.0566C72.2129 19.724 72.1104 19.3525 72.1104 18.9424C72.1104 18.5459 72.1878 18.1973 72.3428 17.8965C72.4977 17.5911 72.721 17.3382 73.0127 17.1377C73.3044 16.9326 73.6553 16.7777 74.0654 16.6729C74.4756 16.568 74.9336 16.5156 75.4395 16.5156H76.9092ZM84.7363 13.6035H85.8848V20.8428C85.8848 21.4945 85.7526 22.0505 85.4883 22.5107C85.224 22.971 84.8548 23.3197 84.3809 23.5566C83.9115 23.7982 83.3691 23.9189 82.7539 23.9189C82.4987 23.9189 82.1979 23.8779 81.8516 23.7959C81.5098 23.7184 81.1725 23.584 80.8398 23.3926C80.5117 23.2057 80.236 22.9528 80.0127 22.6338L80.6758 21.8818C80.9857 22.2555 81.3092 22.5153 81.6465 22.6611C81.9883 22.807 82.3255 22.8799 82.6582 22.8799C83.0592 22.8799 83.4056 22.8047 83.6973 22.6543C83.9889 22.5039 84.2145 22.2806 84.374 21.9844C84.5381 21.6927 84.6201 21.3327 84.6201 20.9043V15.2305L84.7363 13.6035ZM79.6436 17.3838V17.2402C79.6436 16.6751 79.7096 16.1624 79.8418 15.7021C79.9785 15.2373 80.1722 14.8385 80.4229 14.5059C80.6781 14.1732 80.9857 13.918 81.3457 13.7402C81.7057 13.5579 82.1113 13.4668 82.5625 13.4668C83.0273 13.4668 83.4329 13.5488 83.7793 13.7129C84.1302 13.8724 84.4264 14.1071 84.668 14.417C84.9141 14.7223 85.1077 15.0915 85.249 15.5244C85.3903 15.9574 85.4883 16.4473 85.543 16.9941V17.623C85.4928 18.1654 85.3949 18.653 85.249 19.0859C85.1077 19.5189 84.9141 19.888 84.668 20.1934C84.4264 20.4987 84.1302 20.7334 83.7793 20.8975C83.4284 21.057 83.0182 21.1367 82.5488 21.1367C82.1068 21.1367 81.7057 21.0433 81.3457 20.8564C80.9902 20.6696 80.6849 20.4076 80.4297 20.0703C80.1745 19.7331 79.9785 19.3366 79.8418 18.8809C79.7096 18.4206 79.6436 17.9215 79.6436 17.3838ZM80.9082 17.2402V17.3838C80.9082 17.7529 80.9447 18.0993 81.0176 18.4229C81.0951 18.7464 81.2113 19.0312 81.3662 19.2773C81.5257 19.5234 81.7285 19.7171 81.9746 19.8584C82.2207 19.9951 82.5146 20.0635 82.8564 20.0635C83.2757 20.0635 83.6221 19.9746 83.8955 19.7969C84.1689 19.6191 84.3854 19.3844 84.5449 19.0928C84.709 18.8011 84.8366 18.4844 84.9277 18.1426V16.4951C84.8776 16.2445 84.8001 16.0029 84.6953 15.7705C84.5951 15.5335 84.4629 15.3239 84.2988 15.1416C84.1393 14.9548 83.9411 14.8066 83.7041 14.6973C83.4671 14.5879 83.1891 14.5332 82.8701 14.5332C82.5238 14.5332 82.2253 14.6061 81.9746 14.752C81.7285 14.8932 81.5257 15.0892 81.3662 15.3398C81.2113 15.5859 81.0951 15.873 81.0176 16.2012C80.9447 16.5247 80.9082 16.8711 80.9082 17.2402ZM89.0703 14.7656V21H87.8057V13.6035H89.0361L89.0703 14.7656ZM91.3809 13.5625L91.374 14.7383C91.2692 14.7155 91.1689 14.7018 91.0732 14.6973C90.9821 14.6882 90.8773 14.6836 90.7588 14.6836C90.4671 14.6836 90.2096 14.7292 89.9863 14.8203C89.763 14.9115 89.5739 15.0391 89.4189 15.2031C89.264 15.3672 89.141 15.5632 89.0498 15.791C88.9632 16.0143 88.9062 16.2604 88.8789 16.5293L88.5234 16.7344C88.5234 16.2878 88.5667 15.8685 88.6533 15.4766C88.7445 15.0846 88.8835 14.7383 89.0703 14.4375C89.2572 14.1322 89.4941 13.8952 89.7812 13.7266C90.0729 13.5534 90.4193 13.4668 90.8203 13.4668C90.9115 13.4668 91.0163 13.4782 91.1348 13.501C91.2533 13.5192 91.3353 13.5397 91.3809 13.5625ZM96.6377 19.7354V15.9277C96.6377 15.6361 96.5785 15.3831 96.46 15.1689C96.346 14.9502 96.1729 14.7816 95.9404 14.6631C95.708 14.5446 95.4209 14.4854 95.0791 14.4854C94.7601 14.4854 94.4798 14.54 94.2383 14.6494C94.0013 14.7588 93.8145 14.9023 93.6777 15.0801C93.5456 15.2578 93.4795 15.4492 93.4795 15.6543H92.2148C92.2148 15.39 92.2832 15.1279 92.4199 14.8682C92.5566 14.6084 92.7526 14.3737 93.0078 14.1641C93.2676 13.9499 93.5775 13.7812 93.9375 13.6582C94.3021 13.5306 94.7077 13.4668 95.1543 13.4668C95.6921 13.4668 96.166 13.5579 96.5762 13.7402C96.9909 13.9225 97.3145 14.1982 97.5469 14.5674C97.7839 14.932 97.9023 15.39 97.9023 15.9414V19.3867C97.9023 19.6328 97.9229 19.8949 97.9639 20.1729C98.0094 20.4508 98.0755 20.6901 98.1621 20.8906V21H96.8428C96.779 20.8542 96.7288 20.6605 96.6924 20.4189C96.6559 20.1729 96.6377 19.945 96.6377 19.7354ZM96.8564 16.5156L96.8701 17.4043H95.5918C95.2318 17.4043 94.9105 17.4339 94.6279 17.4932C94.3454 17.5479 94.1084 17.6322 93.917 17.7461C93.7256 17.86 93.5798 18.0036 93.4795 18.1768C93.3792 18.3454 93.3291 18.5436 93.3291 18.7715C93.3291 19.0039 93.3815 19.2158 93.4863 19.4072C93.5911 19.5986 93.7484 19.7513 93.958 19.8652C94.1722 19.9746 94.4342 20.0293 94.7441 20.0293C95.1315 20.0293 95.4733 19.9473 95.7695 19.7832C96.0658 19.6191 96.3005 19.4186 96.4736 19.1816C96.6514 18.9447 96.7471 18.7145 96.7607 18.4912L97.3008 19.0996C97.2689 19.291 97.1823 19.5029 97.041 19.7354C96.8997 19.9678 96.7106 20.1911 96.4736 20.4053C96.2412 20.6149 95.9632 20.7904 95.6396 20.9316C95.3206 21.0684 94.9606 21.1367 94.5596 21.1367C94.0583 21.1367 93.6185 21.0387 93.2402 20.8428C92.8665 20.6468 92.5749 20.3848 92.3652 20.0566C92.1602 19.724 92.0576 19.3525 92.0576 18.9424C92.0576 18.5459 92.1351 18.1973 92.29 17.8965C92.445 17.5911 92.6683 17.3382 92.96 17.1377C93.2516 16.9326 93.6025 16.7777 94.0127 16.6729C94.4229 16.568 94.8809 16.5156 95.3867 16.5156H96.8564ZM101.149 15.0732V21H99.8779V13.6035H101.081L101.149 15.0732ZM100.89 17.0215L100.302 17.001C100.306 16.4951 100.372 16.028 100.5 15.5996C100.628 15.1667 100.817 14.7907 101.067 14.4717C101.318 14.1527 101.63 13.9066 102.004 13.7334C102.378 13.5557 102.811 13.4668 103.303 13.4668C103.649 13.4668 103.968 13.5169 104.26 13.6172C104.551 13.7129 104.804 13.8656 105.019 14.0752C105.233 14.2848 105.399 14.5537 105.518 14.8818C105.636 15.21 105.695 15.6064 105.695 16.0713V21H104.431V16.1328C104.431 15.7454 104.365 15.4355 104.232 15.2031C104.105 14.9707 103.923 14.8021 103.686 14.6973C103.449 14.5879 103.171 14.5332 102.852 14.5332C102.478 14.5332 102.166 14.5993 101.915 14.7314C101.664 14.8636 101.464 15.0459 101.313 15.2783C101.163 15.5107 101.054 15.7773 100.985 16.0781C100.922 16.3743 100.89 16.6888 100.89 17.0215ZM105.682 16.3242L104.834 16.584C104.839 16.1784 104.905 15.7887 105.032 15.415C105.164 15.0413 105.354 14.7087 105.6 14.417C105.85 14.1253 106.158 13.8952 106.522 13.7266C106.887 13.5534 107.304 13.4668 107.773 13.4668C108.17 13.4668 108.521 13.5192 108.826 13.624C109.136 13.7288 109.396 13.8906 109.605 14.1094C109.82 14.3236 109.981 14.5993 110.091 14.9365C110.2 15.2738 110.255 15.6748 110.255 16.1396V21H108.983V16.126C108.983 15.7113 108.917 15.39 108.785 15.1621C108.658 14.9297 108.475 14.7679 108.238 14.6768C108.006 14.5811 107.728 14.5332 107.404 14.5332C107.126 14.5332 106.88 14.5811 106.666 14.6768C106.452 14.7725 106.272 14.9046 106.126 15.0732C105.98 15.2373 105.868 15.4264 105.791 15.6406C105.718 15.8548 105.682 16.0827 105.682 16.3242Z" fill="white"/>
</svg>
