<svg width="129" height="32" viewBox="0 0 129 32" fill="none" xmlns="http://www.w3.org/2000/svg">
<path d="M124 0H5C2.23858 0 0 2.23858 0 5V27C0 29.7614 2.23858 32 5 32H124C126.761 32 129 29.7614 129 27V5C129 2.23858 126.761 0 124 0Z" fill="#EF476F"/>
<path d="M31 0H5C2.23858 0 0 2.23858 0 5V27C0 29.7614 2.23858 32 5 32H31V0Z" fill="#073B4C"/>
<path d="M9.1483 27H4.37991V12.9793H9.1483V27ZM6.76154 11.0668C5.23677 11.0668 4 9.91368 4 8.52146C4 7.85273 4.29094 7.21139 4.80884 6.73852C5.32673 6.26565 6.02913 6 6.76154 6C7.49394 6 8.19635 6.26565 8.71425 6.73852C9.23217 7.21139 9.52312 7.85273 9.52312 8.52146C9.52312 9.91368 8.28581 11.0668 6.76154 11.0668ZM26.9949 27H22.2367V20.1748C22.2367 18.5483 22.2008 16.4623 19.7576 16.4623C17.2784 16.4623 16.8985 18.2294 16.8985 20.0577V27H12.1352V12.9793H16.7086V14.8919H16.7753C17.4118 13.7903 18.9669 12.6278 21.2869 12.6278C26.1128 12.6278 27 15.5294 27 19.2982V27H26.9949Z" fill="white"/>
<path d="M61.1914 19.9268V21H56.2148V19.9268H61.1914ZM56.4746 11.0469V21H55.1553V11.0469H56.4746ZM63.8848 13.6035V21H62.6133V13.6035H63.8848ZM62.5176 11.6416C62.5176 11.4365 62.5791 11.2633 62.7021 11.1221C62.8298 10.9808 63.0166 10.9102 63.2627 10.9102C63.5042 10.9102 63.6888 10.9808 63.8164 11.1221C63.9486 11.2633 64.0146 11.4365 64.0146 11.6416C64.0146 11.8376 63.9486 12.0062 63.8164 12.1475C63.6888 12.2842 63.5042 12.3525 63.2627 12.3525C63.0166 12.3525 62.8298 12.2842 62.7021 12.1475C62.5791 12.0062 62.5176 11.8376 62.5176 11.6416ZM67.1797 15.1826V21H65.915V13.6035H67.1113L67.1797 15.1826ZM66.8789 17.0215L66.3525 17.001C66.3571 16.4951 66.4323 16.028 66.5781 15.5996C66.724 15.1667 66.929 14.7907 67.1934 14.4717C67.4577 14.1527 67.7721 13.9066 68.1367 13.7334C68.5059 13.5557 68.9137 13.4668 69.3604 13.4668C69.7249 13.4668 70.0531 13.5169 70.3447 13.6172C70.6364 13.7129 70.8848 13.8678 71.0898 14.082C71.2995 14.2962 71.459 14.5742 71.5684 14.916C71.6777 15.2533 71.7324 15.6657 71.7324 16.1533V21H70.4609V16.1396C70.4609 15.7523 70.404 15.4424 70.29 15.21C70.1761 14.973 70.0098 14.8021 69.791 14.6973C69.5723 14.5879 69.3034 14.5332 68.9844 14.5332C68.6699 14.5332 68.3828 14.5993 68.123 14.7314C67.8678 14.8636 67.6468 15.0459 67.46 15.2783C67.2777 15.5107 67.1341 15.7773 67.0293 16.0781C66.929 16.3743 66.8789 16.6888 66.8789 17.0215ZM74.9248 10.5V21H73.6533V10.5H74.9248ZM79.4434 13.6035L76.2168 17.0557L74.4121 18.9287L74.3096 17.582L75.6016 16.0371L77.8984 13.6035H79.4434ZM78.2881 21L75.6494 17.4727L76.3057 16.3447L79.7783 21H78.2881ZM83.6816 21.1367C83.1667 21.1367 82.6995 21.0501 82.2803 20.877C81.8656 20.6992 81.5078 20.4508 81.207 20.1318C80.9108 19.8128 80.6829 19.4346 80.5234 18.9971C80.3639 18.5596 80.2842 18.0811 80.2842 17.5615V17.2744C80.2842 16.6729 80.373 16.1374 80.5508 15.668C80.7285 15.194 80.9701 14.793 81.2754 14.4648C81.5807 14.1367 81.9271 13.8883 82.3145 13.7197C82.7018 13.5511 83.1029 13.4668 83.5176 13.4668C84.0462 13.4668 84.502 13.5579 84.8848 13.7402C85.2721 13.9225 85.5889 14.1777 85.835 14.5059C86.0811 14.8294 86.2633 15.2122 86.3818 15.6543C86.5003 16.0918 86.5596 16.5703 86.5596 17.0898V17.6572H81.0361V16.625H85.2949V16.5293C85.2767 16.2012 85.2083 15.8822 85.0898 15.5723C84.9759 15.2624 84.7936 15.0072 84.543 14.8066C84.2923 14.6061 83.9505 14.5059 83.5176 14.5059C83.2305 14.5059 82.9661 14.5674 82.7246 14.6904C82.4831 14.8089 82.2757 14.9867 82.1025 15.2236C81.9294 15.4606 81.7949 15.75 81.6992 16.0918C81.6035 16.4336 81.5557 16.8278 81.5557 17.2744V17.5615C81.5557 17.9124 81.6035 18.2428 81.6992 18.5527C81.7995 18.8581 81.943 19.127 82.1299 19.3594C82.3213 19.5918 82.5514 19.7741 82.8203 19.9062C83.0938 20.0384 83.4036 20.1045 83.75 20.1045C84.1966 20.1045 84.5749 20.0133 84.8848 19.8311C85.1947 19.6488 85.4658 19.4049 85.6982 19.0996L86.4639 19.708C86.3044 19.9495 86.1016 20.1797 85.8555 20.3984C85.6094 20.6172 85.3063 20.7949 84.9463 20.9316C84.5908 21.0684 84.1693 21.1367 83.6816 21.1367ZM92.6982 19.5645V10.5H93.9697V21H92.8076L92.6982 19.5645ZM87.7217 17.3838V17.2402C87.7217 16.6751 87.79 16.1624 87.9268 15.7021C88.068 15.2373 88.2663 14.8385 88.5215 14.5059C88.7812 14.1732 89.0889 13.918 89.4443 13.7402C89.8044 13.5579 90.2054 13.4668 90.6475 13.4668C91.1123 13.4668 91.5179 13.5488 91.8643 13.7129C92.2152 13.8724 92.5114 14.1071 92.7529 14.417C92.999 14.7223 93.1927 15.0915 93.334 15.5244C93.4753 15.9574 93.5732 16.4473 93.6279 16.9941V17.623C93.5778 18.1654 93.4798 18.653 93.334 19.0859C93.1927 19.5189 92.999 19.888 92.7529 20.1934C92.5114 20.4987 92.2152 20.7334 91.8643 20.8975C91.5133 21.057 91.1032 21.1367 90.6338 21.1367C90.2008 21.1367 89.8044 21.0433 89.4443 20.8564C89.0889 20.6696 88.7812 20.4076 88.5215 20.0703C88.2663 19.7331 88.068 19.3366 87.9268 18.8809C87.79 18.4206 87.7217 17.9215 87.7217 17.3838ZM88.9932 17.2402V17.3838C88.9932 17.7529 89.0296 18.0993 89.1025 18.4229C89.18 18.7464 89.2985 19.0312 89.458 19.2773C89.6175 19.5234 89.8203 19.7171 90.0664 19.8584C90.3125 19.9951 90.6064 20.0635 90.9482 20.0635C91.3675 20.0635 91.7116 19.9746 91.9805 19.7969C92.2539 19.6191 92.4727 19.3844 92.6367 19.0928C92.8008 18.8011 92.9284 18.4844 93.0195 18.1426V16.4951C92.9648 16.2445 92.8851 16.0029 92.7803 15.7705C92.68 15.5335 92.5479 15.3239 92.3838 15.1416C92.2243 14.9548 92.026 14.8066 91.7891 14.6973C91.5566 14.5879 91.2809 14.5332 90.9619 14.5332C90.6156 14.5332 90.3171 14.6061 90.0664 14.752C89.8203 14.8932 89.6175 15.0892 89.458 15.3398C89.2985 15.5859 89.18 15.873 89.1025 16.2012C89.0296 16.5247 88.9932 16.8711 88.9932 17.2402ZM97.3125 13.6035V21H96.041V13.6035H97.3125ZM95.9453 11.6416C95.9453 11.4365 96.0068 11.2633 96.1299 11.1221C96.2575 10.9808 96.4443 10.9102 96.6904 10.9102C96.932 10.9102 97.1165 10.9808 97.2441 11.1221C97.3763 11.2633 97.4424 11.4365 97.4424 11.6416C97.4424 11.8376 97.3763 12.0062 97.2441 12.1475C97.1165 12.2842 96.932 12.3525 96.6904 12.3525C96.4443 12.3525 96.2575 12.2842 96.1299 12.1475C96.0068 12.0062 95.9453 11.8376 95.9453 11.6416ZM100.607 15.1826V21H99.3428V13.6035H100.539L100.607 15.1826ZM100.307 17.0215L99.7803 17.001C99.7848 16.4951 99.86 16.028 100.006 15.5996C100.152 15.1667 100.357 14.7907 100.621 14.4717C100.885 14.1527 101.2 13.9066 101.564 13.7334C101.934 13.5557 102.341 13.4668 102.788 13.4668C103.153 13.4668 103.481 13.5169 103.772 13.6172C104.064 13.7129 104.312 13.8678 104.518 14.082C104.727 14.2962 104.887 14.5742 104.996 14.916C105.105 15.2533 105.16 15.6657 105.16 16.1533V21H103.889V16.1396C103.889 15.7523 103.832 15.4424 103.718 15.21C103.604 14.973 103.438 14.8021 103.219 14.6973C103 14.5879 102.731 14.5332 102.412 14.5332C102.098 14.5332 101.811 14.5993 101.551 14.7314C101.296 14.8636 101.075 15.0459 100.888 15.2783C100.705 15.5107 100.562 15.7773 100.457 16.0781C100.357 16.3743 100.307 16.6888 100.307 17.0215Z" fill="white"/>
</svg>
