<svg width="129" height="32" viewBox="0 0 129 32" fill="none" xmlns="http://www.w3.org/2000/svg">
<path d="M124 0H5C2.23858 0 0 2.23858 0 5V27C0 29.7614 2.23858 32 5 32H124C126.761 32 129 29.7614 129 27V5C129 2.23858 126.761 0 124 0Z" fill="#EF476F"/>
<path d="M31 0H5C2.23858 0 0 2.23858 0 5V27C0 29.7614 2.23858 32 5 32H31V0Z" fill="#073B4C"/>
<path d="M27 9.11647C26.1762 9.48142 25.3024 9.72098 24.4076 9.82717C25.3396 9.26858 26.0552 8.38402 26.3922 7.33009C25.5062 7.85584 24.5369 8.22627 23.5261 8.42536C22.7027 7.5482 21.5297 7 20.2315 7C17.7388 7 15.7178 9.02091 15.7178 11.5134C15.7178 11.8672 15.7577 12.2117 15.8347 12.5421C12.0835 12.3538 8.7577 10.557 6.53149 7.8262C6.14305 8.49282 5.92048 9.26823 5.92048 10.0953C5.92048 11.6613 6.71738 13.0427 7.92841 13.8521C7.21164 13.8297 6.51065 13.6361 5.88395 13.2875C5.8837 13.3064 5.8837 13.3253 5.8837 13.3443C5.8837 15.5312 7.43951 17.3555 9.50424 17.7701C8.83959 17.9509 8.14242 17.9773 7.46598 17.8475C8.0403 19.6406 9.70723 20.9455 11.6822 20.982C10.1375 22.1925 8.19129 22.9142 6.07671 22.9142C5.71234 22.9142 5.35312 22.8928 5 22.8511C6.99745 24.1317 9.36992 24.879 11.9188 24.879C20.221 24.879 24.7608 18.0013 24.7608 12.0369C24.7608 11.8411 24.7565 11.6465 24.7478 11.4529C25.6314 10.8142 26.3941 10.023 27 9.11647" fill="#F8F8F8"/>
<path d="M62.833 11.0469V21H61.5342V11.0469H62.833ZM66.0322 11.0469V12.127H58.3418V11.0469H66.0322ZM68.7939 19.6875L70.6943 13.6035H71.5283L71.3643 14.8135L69.4297 21H68.6162L68.7939 19.6875ZM67.5156 13.6035L69.1357 19.7559L69.252 21H68.3975L66.251 13.6035H67.5156ZM73.3467 19.708L74.8916 13.6035H76.1494L74.0029 21H73.1553L73.3467 19.708ZM71.7129 13.6035L73.5723 19.585L73.7842 21H72.9775L70.9883 14.7998L70.8242 13.6035H71.7129ZM78.8223 13.6035V21H77.5508V13.6035H78.8223ZM77.4551 11.6416C77.4551 11.4365 77.5166 11.2633 77.6396 11.1221C77.7673 10.9808 77.9541 10.9102 78.2002 10.9102C78.4417 10.9102 78.6263 10.9808 78.7539 11.1221C78.8861 11.2633 78.9521 11.4365 78.9521 11.6416C78.9521 11.8376 78.8861 12.0062 78.7539 12.1475C78.6263 12.2842 78.4417 12.3525 78.2002 12.3525C77.9541 12.3525 77.7673 12.2842 77.6396 12.1475C77.5166 12.0062 77.4551 11.8376 77.4551 11.6416ZM83.9492 13.6035V14.5742H79.9502V13.6035H83.9492ZM81.3037 11.8057H82.5684V19.168C82.5684 19.4186 82.6071 19.6077 82.6846 19.7354C82.762 19.863 82.8623 19.9473 82.9854 19.9883C83.1084 20.0293 83.2406 20.0498 83.3818 20.0498C83.4867 20.0498 83.596 20.0407 83.71 20.0225C83.8285 19.9997 83.9173 19.9814 83.9766 19.9678L83.9834 21C83.8831 21.0319 83.751 21.0615 83.5869 21.0889C83.4274 21.1208 83.2337 21.1367 83.0059 21.1367C82.696 21.1367 82.4111 21.0752 82.1514 20.9521C81.8916 20.8291 81.6842 20.624 81.5293 20.3369C81.3789 20.0452 81.3037 19.6533 81.3037 19.1611V11.8057ZM88.5293 13.6035V14.5742H84.5303V13.6035H88.5293ZM85.8838 11.8057H87.1484V19.168C87.1484 19.4186 87.1872 19.6077 87.2646 19.7354C87.3421 19.863 87.4424 19.9473 87.5654 19.9883C87.6885 20.0293 87.8206 20.0498 87.9619 20.0498C88.0667 20.0498 88.1761 20.0407 88.29 20.0225C88.4085 19.9997 88.4974 19.9814 88.5566 19.9678L88.5635 21C88.4632 21.0319 88.3311 21.0615 88.167 21.0889C88.0075 21.1208 87.8138 21.1367 87.5859 21.1367C87.276 21.1367 86.9912 21.0752 86.7314 20.9521C86.4717 20.8291 86.2643 20.624 86.1094 20.3369C85.959 20.0452 85.8838 19.6533 85.8838 19.1611V11.8057ZM93.082 21.1367C92.5671 21.1367 92.0999 21.0501 91.6807 20.877C91.266 20.6992 90.9082 20.4508 90.6074 20.1318C90.3112 19.8128 90.0833 19.4346 89.9238 18.9971C89.7643 18.5596 89.6846 18.0811 89.6846 17.5615V17.2744C89.6846 16.6729 89.7734 16.1374 89.9512 15.668C90.1289 15.194 90.3704 14.793 90.6758 14.4648C90.9811 14.1367 91.3275 13.8883 91.7148 13.7197C92.1022 13.5511 92.5033 13.4668 92.918 13.4668C93.4466 13.4668 93.9023 13.5579 94.2852 13.7402C94.6725 13.9225 94.9893 14.1777 95.2354 14.5059C95.4814 14.8294 95.6637 15.2122 95.7822 15.6543C95.9007 16.0918 95.96 16.5703 95.96 17.0898V17.6572H90.4365V16.625H94.6953V16.5293C94.6771 16.2012 94.6087 15.8822 94.4902 15.5723C94.3763 15.2624 94.194 15.0072 93.9434 14.8066C93.6927 14.6061 93.3509 14.5059 92.918 14.5059C92.6309 14.5059 92.3665 14.5674 92.125 14.6904C91.8835 14.8089 91.6761 14.9867 91.5029 15.2236C91.3298 15.4606 91.1953 15.75 91.0996 16.0918C91.0039 16.4336 90.9561 16.8278 90.9561 17.2744V17.5615C90.9561 17.9124 91.0039 18.2428 91.0996 18.5527C91.1999 18.8581 91.3434 19.127 91.5303 19.3594C91.7217 19.5918 91.9518 19.7741 92.2207 19.9062C92.4941 20.0384 92.804 20.1045 93.1504 20.1045C93.597 20.1045 93.9753 20.0133 94.2852 19.8311C94.5951 19.6488 94.8662 19.4049 95.0986 19.0996L95.8643 19.708C95.7048 19.9495 95.502 20.1797 95.2559 20.3984C95.0098 20.6172 94.7067 20.7949 94.3467 20.9316C93.9912 21.0684 93.5697 21.1367 93.082 21.1367ZM98.7012 14.7656V21H97.4365V13.6035H98.667L98.7012 14.7656ZM101.012 13.5625L101.005 14.7383C100.9 14.7155 100.8 14.7018 100.704 14.6973C100.613 14.6882 100.508 14.6836 100.39 14.6836C100.098 14.6836 99.8405 14.7292 99.6172 14.8203C99.3939 14.9115 99.2048 15.0391 99.0498 15.2031C98.8949 15.3672 98.7718 15.5632 98.6807 15.791C98.5941 16.0143 98.5371 16.2604 98.5098 16.5293L98.1543 16.7344C98.1543 16.2878 98.1976 15.8685 98.2842 15.4766C98.3753 15.0846 98.5143 14.7383 98.7012 14.4375C98.888 14.1322 99.125 13.8952 99.4121 13.7266C99.7038 13.5534 100.05 13.4668 100.451 13.4668C100.542 13.4668 100.647 13.4782 100.766 13.501C100.884 13.5192 100.966 13.5397 101.012 13.5625Z" fill="white"/>
</svg>
