<svg width="129" height="32" viewBox="0 0 129 32" fill="none" xmlns="http://www.w3.org/2000/svg">
<path d="M124 0H5C2.23858 0 0 2.23858 0 5V27C0 29.7614 2.23858 32 5 32H124C126.761 32 129 29.7614 129 27V5C129 2.23858 126.761 0 124 0Z" fill="#EF476F"/>
<path d="M31 0H5C2.23858 0 0 2.23858 0 5V27C0 29.7614 2.23858 32 5 32H31V0Z" fill="#073B4C"/>
<path d="M26.5194 10.66C26.2549 9.61292 25.4755 8.78833 24.4859 8.5085C22.6923 8 15.5 8 15.5 8C15.5 8 8.30773 8 6.51404 8.5085C5.52449 8.78838 4.74512 9.61292 4.4806 10.66C4 12.5577 4 16.5171 4 16.5171C4 16.5171 4 20.4766 4.4806 22.3744C4.74512 23.4214 5.52449 24.2116 6.51404 24.4915C8.30773 25 15.5 25 15.5 25C15.5 25 22.6923 25 24.4859 24.4915C25.4755 24.2116 26.2549 23.4214 26.5194 22.3744C27 20.4766 27 16.5171 27 16.5171C27 16.5171 27 12.5577 26.5194 10.66ZM13.1477 20.1121V12.9223L19.159 16.5172L13.1477 20.1121Z" fill="white"/>
<path d="M55.6133 11.0469L58.1973 16.0439L60.7881 11.0469H62.2852L58.8535 17.2812V21H57.5342V17.2812L54.1025 11.0469H55.6133ZM62.5859 17.3838V17.2266C62.5859 16.6934 62.6634 16.1989 62.8184 15.7432C62.9733 15.2829 63.1966 14.8841 63.4883 14.5469C63.7799 14.2051 64.1331 13.9408 64.5479 13.7539C64.9626 13.5625 65.4274 13.4668 65.9424 13.4668C66.4619 13.4668 66.929 13.5625 67.3438 13.7539C67.763 13.9408 68.1185 14.2051 68.4102 14.5469C68.7064 14.8841 68.932 15.2829 69.0869 15.7432C69.2419 16.1989 69.3193 16.6934 69.3193 17.2266V17.3838C69.3193 17.917 69.2419 18.4115 69.0869 18.8672C68.932 19.3229 68.7064 19.7217 68.4102 20.0635C68.1185 20.4007 67.7653 20.665 67.3506 20.8564C66.9404 21.0433 66.4756 21.1367 65.9561 21.1367C65.4365 21.1367 64.9694 21.0433 64.5547 20.8564C64.14 20.665 63.7845 20.4007 63.4883 20.0635C63.1966 19.7217 62.9733 19.3229 62.8184 18.8672C62.6634 18.4115 62.5859 17.917 62.5859 17.3838ZM63.8506 17.2266V17.3838C63.8506 17.7529 63.8939 18.1016 63.9805 18.4297C64.0671 18.7533 64.1969 19.0404 64.3701 19.291C64.5479 19.5417 64.7689 19.7399 65.0332 19.8857C65.2975 20.027 65.6051 20.0977 65.9561 20.0977C66.3024 20.0977 66.6055 20.027 66.8652 19.8857C67.1296 19.7399 67.3483 19.5417 67.5215 19.291C67.6947 19.0404 67.8245 18.7533 67.9111 18.4297C68.0023 18.1016 68.0479 17.7529 68.0479 17.3838V17.2266C68.0479 16.862 68.0023 16.5179 67.9111 16.1943C67.8245 15.8662 67.6924 15.5768 67.5146 15.3262C67.3415 15.071 67.1227 14.8704 66.8584 14.7246C66.5986 14.5788 66.2933 14.5059 65.9424 14.5059C65.596 14.5059 65.2907 14.5788 65.0264 14.7246C64.7666 14.8704 64.5479 15.071 64.3701 15.3262C64.1969 15.5768 64.0671 15.8662 63.9805 16.1943C63.8939 16.5179 63.8506 16.862 63.8506 17.2266ZM75.4307 19.291V13.6035H76.7021V21H75.4922L75.4307 19.291ZM75.6699 17.7324L76.1963 17.7188C76.1963 18.2109 76.1439 18.6667 76.0391 19.0859C75.9388 19.5007 75.7747 19.8607 75.5469 20.166C75.319 20.4714 75.0205 20.7106 74.6514 20.8838C74.2822 21.0524 73.8333 21.1367 73.3047 21.1367C72.9447 21.1367 72.6143 21.0843 72.3135 20.9795C72.0173 20.8747 71.762 20.7129 71.5479 20.4941C71.3337 20.2754 71.1673 19.9906 71.0488 19.6396C70.9349 19.2887 70.8779 18.8672 70.8779 18.375V13.6035H72.1426V18.3887C72.1426 18.7214 72.179 18.9971 72.252 19.2158C72.3294 19.43 72.432 19.6009 72.5596 19.7285C72.6917 19.8516 72.8376 19.9382 72.9971 19.9883C73.1611 20.0384 73.3298 20.0635 73.5029 20.0635C74.0407 20.0635 74.4668 19.9609 74.7812 19.7559C75.0957 19.5462 75.3213 19.266 75.458 18.915C75.5993 18.5596 75.6699 18.1654 75.6699 17.7324ZM81.7266 13.6035V14.5742H77.7275V13.6035H81.7266ZM79.0811 11.8057H80.3457V19.168C80.3457 19.4186 80.3844 19.6077 80.4619 19.7354C80.5394 19.863 80.6396 19.9473 80.7627 19.9883C80.8857 20.0293 81.0179 20.0498 81.1592 20.0498C81.264 20.0498 81.3734 20.0407 81.4873 20.0225C81.6058 19.9997 81.6947 19.9814 81.7539 19.9678L81.7607 21C81.6605 21.0319 81.5283 21.0615 81.3643 21.0889C81.2048 21.1208 81.0111 21.1367 80.7832 21.1367C80.4733 21.1367 80.1885 21.0752 79.9287 20.9521C79.6689 20.8291 79.4616 20.624 79.3066 20.3369C79.1562 20.0452 79.0811 19.6533 79.0811 19.1611V11.8057ZM87.7354 19.291V13.6035H89.0068V21H87.7969L87.7354 19.291ZM87.9746 17.7324L88.501 17.7188C88.501 18.2109 88.4486 18.6667 88.3438 19.0859C88.2435 19.5007 88.0794 19.8607 87.8516 20.166C87.6237 20.4714 87.3252 20.7106 86.9561 20.8838C86.5869 21.0524 86.138 21.1367 85.6094 21.1367C85.2493 21.1367 84.9189 21.0843 84.6182 20.9795C84.3219 20.8747 84.0667 20.7129 83.8525 20.4941C83.6383 20.2754 83.472 19.9906 83.3535 19.6396C83.2396 19.2887 83.1826 18.8672 83.1826 18.375V13.6035H84.4473V18.3887C84.4473 18.7214 84.4837 18.9971 84.5566 19.2158C84.6341 19.43 84.7367 19.6009 84.8643 19.7285C84.9964 19.8516 85.1423 19.9382 85.3018 19.9883C85.4658 20.0384 85.6344 20.0635 85.8076 20.0635C86.3454 20.0635 86.7715 19.9609 87.0859 19.7559C87.4004 19.5462 87.626 19.266 87.7627 18.915C87.904 18.5596 87.9746 18.1654 87.9746 17.7324ZM90.9277 10.5H92.1992V19.5645L92.0898 21H90.9277V10.5ZM97.1963 17.2402V17.3838C97.1963 17.9215 97.1325 18.4206 97.0049 18.8809C96.8773 19.3366 96.6904 19.7331 96.4443 20.0703C96.1982 20.4076 95.8975 20.6696 95.542 20.8564C95.1865 21.0433 94.7786 21.1367 94.3184 21.1367C93.849 21.1367 93.4365 21.057 93.0811 20.8975C92.7301 20.7334 92.4339 20.4987 92.1924 20.1934C91.9508 19.888 91.7572 19.5189 91.6113 19.0859C91.4701 18.653 91.3721 18.1654 91.3174 17.623V16.9941C91.3721 16.4473 91.4701 15.9574 91.6113 15.5244C91.7572 15.0915 91.9508 14.7223 92.1924 14.417C92.4339 14.1071 92.7301 13.8724 93.0811 13.7129C93.432 13.5488 93.8398 13.4668 94.3047 13.4668C94.7695 13.4668 95.182 13.5579 95.542 13.7402C95.902 13.918 96.2028 14.1732 96.4443 14.5059C96.6904 14.8385 96.8773 15.2373 97.0049 15.7021C97.1325 16.1624 97.1963 16.6751 97.1963 17.2402ZM95.9248 17.3838V17.2402C95.9248 16.8711 95.8906 16.5247 95.8223 16.2012C95.7539 15.873 95.6445 15.5859 95.4941 15.3398C95.3438 15.0892 95.1455 14.8932 94.8994 14.752C94.6533 14.6061 94.3503 14.5332 93.9902 14.5332C93.6712 14.5332 93.3932 14.5879 93.1562 14.6973C92.9238 14.8066 92.7256 14.9548 92.5615 15.1416C92.3975 15.3239 92.263 15.5335 92.1582 15.7705C92.0579 16.0029 91.9827 16.2445 91.9326 16.4951V18.1426C92.0055 18.4616 92.124 18.7692 92.2881 19.0654C92.4567 19.3571 92.68 19.5964 92.958 19.7832C93.2406 19.9701 93.5892 20.0635 94.0039 20.0635C94.3457 20.0635 94.6374 19.9951 94.8789 19.8584C95.125 19.7171 95.3232 19.5234 95.4736 19.2773C95.6286 19.0312 95.7425 18.7464 95.8154 18.4229C95.8883 18.0993 95.9248 17.7529 95.9248 17.3838ZM101.865 21.1367C101.35 21.1367 100.883 21.0501 100.464 20.877C100.049 20.6992 99.6914 20.4508 99.3906 20.1318C99.0944 19.8128 98.8665 19.4346 98.707 18.9971C98.5475 18.5596 98.4678 18.0811 98.4678 17.5615V17.2744C98.4678 16.6729 98.5566 16.1374 98.7344 15.668C98.9121 15.194 99.1536 14.793 99.459 14.4648C99.7643 14.1367 100.111 13.8883 100.498 13.7197C100.885 13.5511 101.286 13.4668 101.701 13.4668C102.23 13.4668 102.686 13.5579 103.068 13.7402C103.456 13.9225 103.772 14.1777 104.019 14.5059C104.265 14.8294 104.447 15.2122 104.565 15.6543C104.684 16.0918 104.743 16.5703 104.743 17.0898V17.6572H99.2197V16.625H103.479V16.5293C103.46 16.2012 103.392 15.8822 103.273 15.5723C103.16 15.2624 102.977 15.0072 102.727 14.8066C102.476 14.6061 102.134 14.5059 101.701 14.5059C101.414 14.5059 101.15 14.5674 100.908 14.6904C100.667 14.8089 100.459 14.9867 100.286 15.2236C100.113 15.4606 99.9785 15.75 99.8828 16.0918C99.7871 16.4336 99.7393 16.8278 99.7393 17.2744V17.5615C99.7393 17.9124 99.7871 18.2428 99.8828 18.5527C99.9831 18.8581 100.127 19.127 100.313 19.3594C100.505 19.5918 100.735 19.7741 101.004 19.9062C101.277 20.0384 101.587 20.1045 101.934 20.1045C102.38 20.1045 102.758 20.0133 103.068 19.8311C103.378 19.6488 103.649 19.4049 103.882 19.0996L104.647 19.708C104.488 19.9495 104.285 20.1797 104.039 20.3984C103.793 20.6172 103.49 20.7949 103.13 20.9316C102.774 21.0684 102.353 21.1367 101.865 21.1367Z" fill="white"/>
</svg>
